<svg width="22" height="21" viewBox="0 0 22 21" fill="none" xmlns="http://www.w3.org/2000/svg">
<path d="M9.757 19.75H8.355C4.77 19.75 2.978 19.75 1.864 18.615C0.75 17.48 0.75 15.653 0.75 12C0.75 8.347 0.75 6.52 1.864 5.385C2.978 4.25 4.77 4.25 8.355 4.25H12.158C15.743 4.25 17.536 4.25 18.65 5.385C19.507 6.258 19.704 7.541 19.75 9.75V11.25" stroke="#965843" stroke-width="1.5" stroke-linecap="round" stroke-linejoin="round"/>
<path d="M17.75 16.75H14.75M14.75 19.75C13.9544 19.75 13.1913 19.4339 12.6287 18.8713C12.0661 18.3087 11.75 17.5456 11.75 16.75C11.75 15.9544 12.0661 15.1913 12.6287 14.6287C13.1913 14.0661 13.9544 13.75 14.75 13.75M17.75 19.75C18.5456 19.75 19.3087 19.4339 19.8713 18.8713C20.4339 18.3087 20.75 17.5456 20.75 16.75C20.75 15.9544 20.4339 15.1913 19.8713 14.6287C19.3087 14.0661 18.5456 13.75 17.75 13.75M14.75 4.25L14.65 3.94C14.155 2.4 13.908 1.63 13.319 1.19C12.729 0.75 11.947 0.75 10.381 0.75H10.118C8.553 0.75 7.77 0.75 7.181 1.19C6.591 1.63 6.344 2.4 5.849 3.94L5.75 4.25" stroke="#965843" stroke-width="1.5" stroke-linecap="round" stroke-linejoin="round"/>
</svg>
