<svg width="56" height="56" viewBox="0 0 56 56" fill="none" xmlns="http://www.w3.org/2000/svg">
<rect width="56" height="56" rx="28" fill="#F6E2FF"/>
<path d="M18.4644 25.3438C18.2158 25.3438 17.989 25.1423 18.0005 24.879C18.0674 23.3369 18.2549 22.333 18.7801 21.5388C19.0823 21.082 19.4577 20.6846 19.8893 20.3647C21.0558 19.5 22.7014 19.5 25.9927 19.5H30.0074C33.2987 19.5 34.9443 19.5 36.1109 20.3647C36.5424 20.6846 36.9178 21.082 37.22 21.5388C37.7452 22.3329 37.9327 23.3367 37.9996 24.8784C38.0111 25.1421 37.784 25.3438 37.5352 25.3438C36.1494 25.3438 35.026 26.533 35.026 28C35.026 29.467 36.1494 30.6562 37.5352 30.6562C37.784 30.6562 38.0111 30.8579 37.9996 31.1216C37.9327 32.6634 37.7452 33.6671 37.22 34.4612C36.9178 34.918 36.5424 35.3154 36.1109 35.6353C34.9443 36.5 33.2987 36.5 30.0074 36.5H25.9927C22.7014 36.5 21.0558 36.5 19.8893 35.6353C19.4577 35.3154 19.0823 34.918 18.7801 34.4612C18.2549 33.667 18.0674 32.6631 18.0005 31.1211C17.989 30.8577 18.2158 30.6562 18.4644 30.6562C19.8502 30.6562 20.9736 29.467 20.9736 28C20.9736 26.533 19.8502 25.3438 18.4644 25.3438Z" stroke="#AA16EF" stroke-width="1.5" stroke-linejoin="round"/>
<path d="M25.5001 30.5L30.5001 25.5" stroke="#AA16EF" stroke-width="1.5" stroke-linecap="round" stroke-linejoin="round"/>
<path d="M25.5001 25.5H25.5113M30.4888 30.5H30.5001" stroke="#AA16EF" stroke-width="2" stroke-linecap="round" stroke-linejoin="round"/>
</svg>
