<svg width="75" height="37" viewBox="0 0 75 37" fill="none" xmlns="http://www.w3.org/2000/svg">
<path d="M2.16796 15.4395C5.59453 13.8561 9.54418 13.9757 13.278 14.3487C13.3024 14.3505 13.3269 14.3473 13.35 14.3393C13.3732 14.3312 13.3944 14.3184 13.4123 14.3017C13.4302 14.285 13.4445 14.2648 13.4542 14.2424C13.464 14.2199 13.469 14.1956 13.4689 14.1712C13.468 14.099 13.4439 14.029 13.4001 13.9716C13.3564 13.9142 13.2954 13.8724 13.2261 13.8523C10.3002 12.9931 7.23013 12.7375 4.20245 13.1013C17.6003 4.80687 37.0978 -1.73365 50.7801 9.20477C46.5838 11.0659 42.4626 13.6963 40.1462 17.8125C38.7255 20.1556 38.0505 22.8752 38.2109 25.6107C38.5702 32.291 44.9636 37.5618 51.4271 35.8419C63.1566 32.7204 63.2784 17.1127 55.2826 8.74466C61.2996 6.39083 67.639 4.83051 74.0137 3.77575C74.0483 3.77054 74.0794 3.75197 74.1005 3.72404C74.1215 3.69611 74.1308 3.66104 74.1263 3.62636C74.1231 3.59809 74.1144 3.57071 74.1006 3.54581C74.0868 3.52091 74.0683 3.49898 74.0461 3.48124C74.0238 3.46351 73.9983 3.45033 73.971 3.44247C73.9436 3.43461 73.915 3.43221 73.8867 3.43541C67.255 4.18945 60.6801 5.52916 54.3721 7.75826C40.5697 -5.933 17.7852 0.486834 4.693 11.6751C6.70271 9.95632 6.93923 5.88235 6.36837 3.92987C6.35508 3.86538 6.3172 3.80859 6.26277 3.77154C6.20833 3.7345 6.14162 3.7201 6.07675 3.7314C6.01844 3.74633 5.96529 3.77686 5.92301 3.81969C5.88071 3.86253 5.85088 3.91606 5.8367 3.97455C4.96077 7.56652 3.2786 10.4899 0.698254 13.7899C-0.360018 15.144 -0.465327 16.6554 2.16796 15.4395ZM54.4014 13.1535C59.5353 19.7395 58.3368 31.9875 50.3848 33.4649C45.7767 34.3229 41.3062 31.1739 40.4844 26.5585C40.012 23.8757 40.485 21.1121 41.8228 18.7391C43.9495 14.7428 47.9145 12.152 51.9116 10.2154C52.8332 11.1132 53.6669 12.0971 54.4014 13.1535Z" fill="#B89973"/>
</svg>
