<svg width="95" height="66" viewBox="0 0 95 66" fill="none" xmlns="http://www.w3.org/2000/svg">
<path d="M94.669 51.0524C89.7843 53.138 85.4604 53.2935 80.3063 52.0494C79.5093 52.1799 80.5479 52.8825 80.8062 53.1019C83.1694 54.9708 87.0184 55.018 90.0564 54.8597C82.6945 59.1363 73.3193 62.7992 64.7856 61.855C54.8772 60.958 44.6272 53.8767 43.6136 43.449C49.7508 41.269 55.9685 37.4784 59.1288 31.5717C62.4778 23.5877 54.2135 19.55 47.5153 24.3903C42.0834 28.317 39.2426 35.0679 39.026 41.6994C13.283 46.8897 -3.49573 24.5319 1.89169 0.285793C1.89949 0.256223 1.90117 0.225373 1.89665 0.195128C1.89212 0.164884 1.88148 0.135878 1.86536 0.109887C1.84925 0.0838955 1.828 0.0614631 1.80293 0.0439605C1.77785 0.0264579 1.74947 0.0142528 1.71951 0.00809099C1.6907 0.000146579 1.66059 -0.00197514 1.63095 0.00184826C1.6013 0.00567166 1.57272 0.015364 1.54687 0.0303595C1.52101 0.0453551 1.49841 0.0653525 1.48037 0.0891841C1.46233 0.113016 1.44922 0.140204 1.44181 0.169158C-5.30356 25.34 12.3472 49.0197 39.1898 44.582C40.0646 52.3049 45.5575 58.9086 52.3917 62.2632C64.5634 68.4254 80.534 64.2321 90.7868 56.0066C90.5257 57.3951 89.7454 58.6392 89.4788 60.0222C89.1678 61.6412 89.7815 64.6043 90.5174 63.6879C90.844 62.1435 91.2887 60.6265 91.8476 59.1502C92.3863 57.6478 93.0417 55.9678 93.6499 54.4932L93.772 54.2155L94.9773 51.3885C94.9977 51.3442 95.0046 51.2949 94.997 51.2468C94.9895 51.1986 94.9679 51.1538 94.935 51.1179C94.902 51.082 94.8592 51.0566 94.8119 51.0449C94.7646 51.0333 94.7149 51.0359 94.669 51.0524ZM46.5406 31.4495C50.6811 23.4933 60.1479 24.8235 54.6994 32.3131C51.71 35.8451 47.8942 38.5838 43.5914 40.2859C43.8832 37.1531 44.8923 34.1296 46.5406 31.4495Z" fill="#B89973"/>
<path d="M5.59898 36.8119C5.61874 36.7878 5.64423 36.769 5.67313 36.7574C5.70202 36.7457 5.73339 36.7414 5.76436 36.745C5.79532 36.7486 5.82488 36.7599 5.85033 36.7779C5.87578 36.7959 5.8963 36.82 5.91001 36.848C8.44542 41.9355 14.1189 45.5928 19.148 45.9705C19.1932 45.9733 19.2356 45.9933 19.2666 46.0263C19.2976 46.0594 19.3148 46.103 19.3147 46.1482C19.3142 46.1937 19.2987 46.2377 19.2705 46.2733C19.2424 46.309 19.2032 46.3344 19.1592 46.3454C13.3746 47.7672 7.49568 42.2632 5.55177 37.1618C5.52913 37.1036 5.5226 37.0404 5.53286 36.9789C5.54312 36.9173 5.5698 36.8596 5.61009 36.8119H5.59898Z" fill="#B89973"/>
<path d="M59.8119 20.0081C63.1221 19.6416 65.1743 23.8265 63.6081 26.5702C63.5981 26.589 63.582 26.6039 63.5625 26.6124C63.5429 26.621 63.5211 26.6226 63.5005 26.6171C63.4799 26.6117 63.4618 26.5994 63.449 26.5823C63.4363 26.5652 63.4297 26.5443 63.4304 26.523C63.4304 23.821 62.4029 21.2467 59.7897 20.1914C59.7693 20.1844 59.7519 20.1706 59.7404 20.1522C59.729 20.1339 59.7242 20.1123 59.7268 20.0908C59.7294 20.0694 59.7392 20.0495 59.7547 20.0344C59.7702 20.0194 59.7904 20.0101 59.8119 20.0081Z" fill="#B89973"/>
<path d="M4.97138 35.1152C4.708 35.1381 4.44556 35.0618 4.23547 34.9013C4.07633 34.787 3.95536 34.6273 3.88834 34.4431C3.82394 34.2648 3.81523 34.0711 3.86335 33.8877C3.92775 33.6388 4.06739 33.4157 4.26324 33.249C4.49806 33.3133 4.71729 33.4248 4.90751 33.5767C5.03597 33.6783 5.13344 33.8138 5.1889 33.9679C5.24436 34.122 5.25558 34.2885 5.22131 34.4487C5.16842 34.6811 5.08435 34.9053 4.97138 35.1152Z" fill="#B89973"/>
<path d="M63.2388 28.3336C63.2415 28.3179 63.2491 28.3035 63.2606 28.2924C63.272 28.2814 63.2867 28.2742 63.3025 28.2721C63.3183 28.2699 63.3343 28.2728 63.3483 28.2804C63.3623 28.288 63.3736 28.2998 63.3804 28.3142C63.4566 28.4656 63.501 28.631 63.5109 28.8002C63.5229 29.0291 63.4909 29.2582 63.4165 29.475C63.3424 29.6909 63.2263 29.8901 63.0749 30.0609C62.9641 30.1892 62.828 30.2932 62.675 30.3664C62.6609 30.3724 62.6454 30.3741 62.6304 30.3712C62.6153 30.3684 62.6014 30.3612 62.5905 30.3505C62.5795 30.3399 62.5719 30.3262 62.5687 30.3112C62.5654 30.2963 62.5667 30.2807 62.5723 30.2664C62.6417 30.122 62.6973 29.9887 62.7528 29.8554C62.8278 29.6749 62.8916 29.4944 62.9555 29.3139C63.0194 29.1334 63.0777 28.9529 63.1305 28.7585C63.1693 28.6252 63.2055 28.4891 63.2388 28.3336Z" fill="#B89973"/>
<path d="M61.8808 58.4699C66.188 59.5501 72.3835 59.3196 76.3491 57.2619C76.3576 57.256 76.368 57.2537 76.3782 57.2555C76.3883 57.2573 76.3973 57.2631 76.4032 57.2716C76.4091 57.28 76.4114 57.2905 76.4096 57.3007C76.4078 57.3108 76.402 57.3198 76.3935 57.3257C72.9833 60.3221 65.8103 60.6415 61.8558 58.5421C61.848 58.5376 61.8419 58.5304 61.8388 58.522C61.8356 58.5135 61.8354 58.5042 61.8384 58.4956C61.8414 58.487 61.8472 58.4798 61.855 58.4751C61.8627 58.4704 61.8719 58.4685 61.8808 58.4699Z" fill="#B89973"/>
</svg>
