<svg width="50" height="53" viewBox="0 0 50 53" fill="none" xmlns="http://www.w3.org/2000/svg">
<g filter="url(#filter0_d_3_90)">
<path d="M16 24H28M16 16H22" stroke="#985A45" stroke-width="2" stroke-linecap="round" stroke-linejoin="round"/>
<path d="M18 40C20.1008 41.7394 22.629 42.8476 25.527 43.0376C27.8104 43.1874 30.1942 43.1872 32.473 43.0376C33.2576 42.9862 34.113 42.8014 34.8496 42.502C35.669 42.169 36.079 42.0024 36.2874 42.0276C36.4956 42.0528 36.7978 42.2728 37.4022 42.7126C38.4678 43.488 39.8102 44.045 41.801 43.9972C42.8076 43.973 43.311 43.9608 43.5362 43.5818C43.7616 43.2026 43.481 42.6778 42.9196 41.6282C42.1412 40.1724 41.648 38.5058 42.3954 37.1704C43.6826 35.263 44.7758 33.0042 44.9356 30.5646C45.0214 29.2538 45.0214 27.8962 44.9356 26.5854C44.8292 24.9598 44.4346 23.4146 43.8024 22" stroke="#985A45" stroke-width="2" stroke-linecap="round" stroke-linejoin="round"/>
<path d="M25.69 34.9736C32.8012 34.5052 38.4656 28.8138 38.9316 21.6688C39.0228 20.2706 39.0228 18.8226 38.9316 17.4244C38.4656 10.2794 32.8012 4.58802 25.69 4.1197C23.264 3.95994 20.7311 3.96026 18.31 4.1197C11.1989 4.58802 5.5345 10.2794 5.0684 17.4244C4.9772 18.8226 4.9772 20.2706 5.0684 21.6688C5.23816 24.2712 6.39984 26.6806 7.76744 28.7152C8.56152 30.1394 8.03746 31.9172 7.21036 33.47C6.614 34.5896 6.31582 35.1494 6.55524 35.5538C6.79464 35.9582 7.32944 35.9712 8.39902 35.997C10.5142 36.048 11.9406 35.4538 13.0728 34.6268C13.7149 34.1576 14.036 33.923 14.2572 33.8962C14.4785 33.8692 14.914 34.0468 15.7848 34.4022C16.5675 34.7216 17.4762 34.9186 18.31 34.9736C20.7311 35.133 23.264 35.1332 25.69 34.9736Z" stroke="#985A45" stroke-width="2" stroke-linejoin="round"/>
</g>
<defs>
<filter id="filter0_d_3_90" x="-3" y="0" width="56" height="56" filterUnits="userSpaceOnUse" color-interpolation-filters="sRGB">
<feFlood flood-opacity="0" result="BackgroundImageFix"/>
<feColorMatrix in="SourceAlpha" type="matrix" values="0 0 0 0 0 0 0 0 0 0 0 0 0 0 0 0 0 0 127 0" result="hardAlpha"/>
<feOffset dy="4"/>
<feGaussianBlur stdDeviation="2"/>
<feComposite in2="hardAlpha" operator="out"/>
<feColorMatrix type="matrix" values="0 0 0 0 0 0 0 0 0 0 0 0 0 0 0 0 0 0 0.25 0"/>
<feBlend mode="normal" in2="BackgroundImageFix" result="effect1_dropShadow_3_90"/>
<feBlend mode="normal" in="SourceGraphic" in2="effect1_dropShadow_3_90" result="shape"/>
</filter>
</defs>
</svg>
