<svg width="48" height="50" viewBox="0 0 48 50" fill="none" xmlns="http://www.w3.org/2000/svg">
<g filter="url(#filter0_d_3_106)">
<path d="M38.112 13.4055C37.4174 9.96701 34.3798 7.37695 30.7368 7.37695H13.525C9.36844 7.37695 6 10.7454 6 14.9019V25.091C6 29.2474 9.36844 32.616 13.525 32.616H21.2096" stroke="#985A45" stroke-width="2" stroke-linecap="round" stroke-linejoin="round"/>
<path d="M12.832 39.9218H22.5384" stroke="#985A45" stroke-width="2" stroke-linecap="round" stroke-linejoin="round"/>
<path d="M18.1167 32.6074L16.9258 39.9222" stroke="#985A45" stroke-width="2" stroke-linecap="round" stroke-linejoin="round"/>
<path d="M37.651 18.998C40.0502 18.998 41.9962 20.944 41.9982 23.3452V29.8116V36.278C41.9982 38.6794 40.0522 40.6254 37.651 40.6254H31.025C28.6236 40.6254 26.6778 38.6794 26.6778 36.278L26.6758 23.3452C26.6758 20.946 28.6236 18.998 31.023 18.998H37.651Z" stroke="#985A45" stroke-width="2" stroke-linecap="round" stroke-linejoin="round"/>
<path d="M34.3398 35.3458V35.3658" stroke="#985A45" stroke-width="2.1" stroke-linecap="round" stroke-linejoin="round"/>
</g>
<defs>
<filter id="filter0_d_3_106" x="-4" y="0" width="56" height="56" filterUnits="userSpaceOnUse" color-interpolation-filters="sRGB">
<feFlood flood-opacity="0" result="BackgroundImageFix"/>
<feColorMatrix in="SourceAlpha" type="matrix" values="0 0 0 0 0 0 0 0 0 0 0 0 0 0 0 0 0 0 127 0" result="hardAlpha"/>
<feOffset dy="4"/>
<feGaussianBlur stdDeviation="2"/>
<feComposite in2="hardAlpha" operator="out"/>
<feColorMatrix type="matrix" values="0 0 0 0 0 0 0 0 0 0 0 0 0 0 0 0 0 0 0.25 0"/>
<feBlend mode="normal" in2="BackgroundImageFix" result="effect1_dropShadow_3_106"/>
<feBlend mode="normal" in="SourceGraphic" in2="effect1_dropShadow_3_106" result="shape"/>
</filter>
</defs>
</svg>
